<svg xmlns="http://www.w3.org/2000/svg" width="1024" height="1024" viewBox="0 0 1024 1024" fill="none">
  <rect width="1024" height="1024" rx="240" fill="#ffffff" />
  <g transform="translate(128 128) scale(32)">
    <circle cx="12" cy="12" r="3" stroke="#ef4444" stroke-width="1.5" />
    <path d="M12 16.5A4.5 4.5 0 1 1 7.5 12 4.5 4.5 0 1 1 12 7.5a4.5 4.5 0 1 1 4.5 4.5 4.5 4.5 0 1 1-4.5 4.5" stroke="#ef4444" stroke-width="1.5" stroke-linecap="round" stroke-linejoin="round" />
    <path d="M12 7.5V9" stroke="#ef4444" stroke-width="1.5" stroke-linecap="round" />
    <path d="M7.5 12H9" stroke="#ef4444" stroke-width="1.5" stroke-linecap="round" />
    <path d="M16.5 12H15" stroke="#ef4444" stroke-width="1.5" stroke-linecap="round" />
    <path d="M12 16.5V15" stroke="#ef4444" stroke-width="1.5" stroke-linecap="round" />
    <path d="m8 8 1.88 1.88" stroke="#ef4444" stroke-width="1.5" stroke-linecap="round" />
    <path d="M14.12 9.88 16 8" stroke="#ef4444" stroke-width="1.5" stroke-linecap="round" />
    <path d="m8 16 1.88-1.88" stroke="#ef4444" stroke-width="1.5" stroke-linecap="round" />
    <path d="M14.12 14.12 16 16" stroke="#ef4444" stroke-width="1.5" stroke-linecap="round" />
  </g>
</svg>
